<?xml version="1.0" encoding="UTF-8"?>
<svg xmlns="http://www.w3.org/2000/svg" xmlns:xlink="http://www.w3.org/1999/xlink" width="128px" height="128px" viewBox="0 0 128 128" version="1.1">
<g id="surface1">
<path style=" stroke:none;fill-rule:nonzero;fill:rgb(0%,0%,0%);fill-opacity:1;" d="M 63.59375 95.886719 C 59.15625 96.820312 54.792969 97.316406 50.414062 97.691406 C 49.15625 97.800781 47.988281 97.453125 46.820312 96.824219 C 35.820312 90.898438 27.394531 81.503906 20.058594 70.609375 C 16.457031 65.257812 12.886719 59.890625 10.335938 53.742188 C 9.339844 51.339844 8.648438 48.839844 8.675781 46.074219 C 8.710938 42.171875 10.246094 39.253906 12.902344 37.160156 C 17.792969 33.300781 22.90625 33.679688 28.085938 36.453125 C 32.996094 39.082031 36.667969 43.289062 39.699219 48.347656 C 43.226562 54.246094 45.652344 60.808594 48.21875 67.285156 C 49.769531 71.207031 51.546875 74.992188 53.269531 78.808594 C 53.859375 80.117188 54.566406 80.335938 55.738281 79.636719 C 62.796875 75.421875 69.890625 71.28125 77.070312 67.335938 C 86.058594 62.398438 95.164062 57.789062 104.835938 54.886719 C 108.621094 53.75 112.460938 52.917969 116.398438 53.15625 C 119.003906 53.316406 121.550781 53.824219 123.492188 56.09375 C 127.226562 60.457031 126.996094 67.007812 123.03125 71.117188 C 121 73.222656 118.785156 74.980469 116.265625 76.222656 C 105.238281 81.660156 94.105469 86.78125 82.59375 90.707031 C 76.386719 92.824219 70.117188 94.699219 63.59375 95.886719 M 45.667969 85 C 46.234375 85.789062 46.761719 86.65625 47.964844 86.726562 C 47.664062 86.105469 47.464844 85.652344 47.234375 85.226562 C 45.503906 82.058594 43.960938 78.769531 42.59375 75.375 C 40.386719 69.894531 38.332031 64.328125 35.898438 58.96875 C 34.054688 54.90625 31.894531 51.121094 28.925781 47.992188 C 25.976562 44.886719 22.46875 44.09375 18.660156 44.445312 C 17.433594 44.558594 16.855469 45.476562 17.101562 46.796875 C 17.550781 46.550781 17.984375 46.3125 18.417969 46.070312 C 20.324219 45.015625 21.808594 45.363281 23.140625 47.246094 C 23.589844 47.875 23.976562 48.570312 24.339844 49.273438 C 27.058594 54.503906 29.792969 59.71875 32.792969 64.746094 C 36.875 71.582031 41.378906 78.066406 45.667969 85 M 97.683594 69.761719 C 101.417969 67.976562 105.160156 66.214844 108.882812 64.402344 C 110.519531 63.605469 111.910156 64.035156 113.203125 65.28125 C 113.476562 65.542969 113.726562 65.839844 113.996094 66.105469 C 114.890625 66.96875 115.65625 66.300781 116.207031 65.632812 C 116.855469 64.84375 116.230469 64.25 115.644531 63.800781 C 114.703125 63.085938 113.695312 62.636719 112.546875 62.527344 C 109.558594 62.246094 106.726562 63.097656 103.917969 64.074219 C 98.015625 66.125 92.597656 69.457031 87.140625 72.671875 C 83.375 74.886719 79.671875 77.246094 75.832031 79.304688 C 83.191406 76.550781 90.371094 73.285156 97.683594 69.761719 Z M 97.683594 69.761719 "/>
</g>
</svg>
