<svg width="63" height="13" viewBox="0 0 63 13" fill="none" xmlns="http://www.w3.org/2000/svg">
<path id="Vector" d="M0.0114059 10.8539C0.450546 7.84824 1.05436 4.60025 3.57942 2.3218C5.72023 0.382695 8.9589 -0.635347 11.9231 0.431161C15.2715 1.6431 16.6438 4.64873 18.4004 7.16956C19.4434 8.67237 21.4195 10.8054 23.7799 10.3691C25.3718 10.0297 26.0305 8.5754 26.5245 7.36346C27.4028 5.37587 27.9517 3.14591 29.8181 1.6431C31.904 -0.00513784 34.8682 0.188784 37.0639 1.59464C40.0281 3.43679 40.8514 6.58781 43.3216 8.81779C45.0782 10.3691 47.219 10.2237 48.9207 8.62389C50.293 7.26652 50.6772 5.47284 51.7202 3.92156C53.4219 1.40072 56.8252 0.818982 59.6796 2.37027C63.0281 4.26089 63.4123 8.04214 62.6987 11.1447C62.4242 12.4051 60.0639 12.1143 60.1188 10.8539C60.1188 9.39952 60.2834 7.84825 59.7345 6.4424C59.0209 4.64873 56.4958 3.19437 54.7393 4.84261C53.7512 5.76369 53.4768 7.21802 52.818 8.33301C52.1593 9.49647 51.1713 10.563 50.0185 11.3871C45.0233 14.7321 40.7966 10.6115 38.3813 6.97564C37.0639 4.98806 33.6605 1.15831 31.3002 4.35784C30.0376 6.00608 29.7632 8.13911 28.7202 9.8843C26.1403 14.2958 20.5961 13.6656 17.2477 10.2236C15.1068 8.04216 14.0639 3.87307 10.6605 2.85504C5.39086 1.35224 3.63431 7.75128 3.19517 10.8539C2.81092 12.5021 -0.208164 12.5506 0.0114059 10.8539Z" fill="#FDA3C4"/>
</svg>
